<svg width="48" height="48" viewBox="0 0 48 48" fill="none" xmlns="http://www.w3.org/2000/svg">
<g id="Layer_1-2">
<g id="Group">
<path id="Vector" d="M24 48C37.2548 48 48 37.2548 48 24C48 10.7452 37.2548 0 24 0C10.7452 0 0 10.7452 0 24C0 37.2548 10.7452 48 24 48Z" fill="url(#paint0_linear_286_298)"/>
<path id="Vector_2" d="M14.9464 36.0219C14.5141 36.0219 14.0103 35.9049 13.5494 35.4631L13.3655 35.2864L13.3034 35.0404C13.0121 33.9132 13.5183 32.9723 13.9243 32.2177C14.3518 31.4225 14.507 31.0595 14.3183 30.6559C14.1655 30.3311 14.0055 30.0087 13.8479 29.6887C13.2986 28.5855 12.7327 27.444 12.4628 26.1472C11.8132 23.0213 12.5488 19.6923 14.4783 17.0105C16.4652 14.2523 19.5052 12.4469 22.8222 12.0553C25.9267 11.6875 29.1338 12.7072 31.6294 14.8493C34.1535 17.0177 35.6604 20.0864 35.7655 23.2672C35.8849 26.835 34.5141 30.2475 32.0043 32.6308C29.6855 34.8326 26.6789 35.8977 23.5482 35.6302C20.5894 35.3771 18.1488 35.4607 15.8658 35.8953L15.7153 35.9264C15.5171 35.9669 15.2497 36.0243 14.9464 36.0243V36.0219ZM24.0759 13.7771C23.7273 13.7771 23.3786 13.7962 23.0324 13.8392C20.2144 14.1735 17.6282 15.7114 15.935 18.0613C14.2992 20.3347 13.6735 23.1478 14.2204 25.7819C14.4425 26.8517 14.9344 27.8428 15.455 28.8887C15.6222 29.2231 15.787 29.5574 15.9446 29.8941C16.5344 31.155 15.9398 32.2607 15.5052 33.0678C15.2473 33.5455 15.0682 33.9037 15.0228 34.2213C15.0944 34.2141 15.1971 34.195 15.3428 34.164L15.5267 34.1258C17.9744 33.6601 20.5703 33.5669 23.6986 33.8344C26.3088 34.0565 28.821 33.1658 30.7649 31.3222C32.9022 29.2923 34.07 26.3765 33.9673 23.3222C33.8789 20.6404 32.5989 18.0469 30.4544 16.2058C28.6228 14.632 26.3446 13.7723 24.0735 13.7723L24.0759 13.7771Z" fill="white"/>
</g>
</g>
<defs>
<linearGradient id="paint0_linear_286_298" x1="34.9707" y1="43.0018" x2="10.7367" y2="1.02925" gradientUnits="userSpaceOnUse">
<stop stop-color="#00FFE2"/>
<stop offset="1" stop-color="#2871BB"/>
</linearGradient>
</defs>
</svg>
