<svg width="48" height="48" viewBox="0 0 48 48" fill="none" xmlns="http://www.w3.org/2000/svg">
<g id="Group">
<path id="Vector" d="M24 48C37.2548 48 48 37.2548 48 24C48 10.7452 37.2548 0 24 0C10.7452 0 0 10.7452 0 24C0 37.2548 10.7452 48 24 48Z" fill="url(#paint0_linear_286_293)"/>
<path id="Vector_2" d="M24.0164 35.2743C23.4623 35.2743 22.8486 35.0474 22.1656 34.448C21.4611 33.8247 20.7447 33.2134 20.0307 32.602C18.039 30.8993 15.9805 29.1369 14.1537 27.1477C11.7226 24.5017 10.8319 21.7698 11.4361 18.8014C12.0402 15.8235 13.817 13.8271 16.5752 13.0271C19.2331 12.2557 21.7095 13.0271 23.7393 15.2575C23.8396 15.3674 23.9352 15.4772 24.0426 15.6014C27.7561 11.6707 31.1376 12.4898 33.3202 13.8701C36.2289 15.7089 37.4946 19.7423 36.2647 23.2551C35.3286 25.9274 33.3752 27.8593 31.6176 29.4617C30.6838 30.3143 29.7071 31.1405 28.7638 31.9381C27.8587 32.7047 26.9202 33.4975 26.0343 34.3023C25.4874 34.799 24.8164 35.2743 24.0164 35.2743ZM18.5573 14.5316C18.0796 14.5316 17.5853 14.6056 17.0767 14.7537C14.9728 15.3626 13.6665 16.8456 13.1984 19.1596C12.7113 21.5572 13.4373 23.7089 15.479 25.9322C17.2343 27.8402 19.2498 29.5668 21.2008 31.236C21.922 31.8546 22.6456 32.4707 23.3573 33.1011C23.9304 33.6074 24.0928 33.6432 24.8283 32.9746C25.7381 32.1483 26.6886 31.3459 27.6056 30.5674C28.537 29.7793 29.4993 28.965 30.4092 28.134C32.0784 26.6128 33.774 24.9363 34.5716 22.6605C35.534 19.919 34.5835 16.7931 32.3626 15.3913C29.9841 13.8892 27.6892 14.362 25.3489 16.8384C25.3179 16.8743 25.251 17.0199 25.1961 17.1369C25.134 17.2707 25.0647 17.4211 24.9787 17.5859L24.3602 18.7513L23.0086 17.168C22.765 16.879 22.5907 16.6737 22.4092 16.4731C21.2319 15.1787 19.9614 14.5363 18.5573 14.5363V14.5316Z" fill="white"/>
</g>
<defs>
<linearGradient id="paint0_linear_286_293" x1="34.9063" y1="42.8872" x2="10.9349" y2="1.36836" gradientUnits="userSpaceOnUse">
<stop stop-color="#00FFE2"/>
<stop offset="1" stop-color="#2871BB"/>
</linearGradient>
</defs>
</svg>
