<svg width="48" height="48" viewBox="0 0 48 48" fill="none" xmlns="http://www.w3.org/2000/svg">
<g id="Group 22">
<path id="Vector" d="M24 48C37.2548 48 48 37.2548 48 24C48 10.7452 37.2548 0 24 0C10.7452 0 0 10.7452 0 24C0 37.2548 10.7452 48 24 48Z" fill="url(#paint0_linear_286_285)"/>
<path id="Vector_2" d="M31.9933 19.3388C31.9933 17.0625 31.3508 15.2233 30.0968 13.7926C28.5204 11.9821 26.5068 11.0792 23.9965 11.0792C19.1215 11.0792 15.6199 14.4662 15.6199 19.1047C15.6199 23.7432 19.0641 27.0131 23.8508 27.0131C26.0697 27.0131 27.8492 26.3706 30.0968 24.2401L30.092 36.6939C30.092 39.6795 27.6629 42.1087 24.6772 42.1087H23.6095C20.3181 42.1087 17.6406 39.4311 17.6406 36.1397V34.2002C17.6477 34.0569 17.674 33.9901 17.803 33.9901C18.3524 33.9948 19.1191 33.9901 19.6661 33.9901C19.7377 33.9901 19.8094 33.9829 19.9336 33.9757C18.6533 32.0744 17.3563 30.2066 16.0952 28.3436C15.9805 28.174 15.713 28.2528 15.713 28.4606C15.713 29.8268 15.725 32.9176 15.7202 34.377H15.7369V36.1421C15.7369 40.4821 19.2672 44.0123 23.6071 44.0123H24.6748C28.4463 44.0123 31.561 41.1437 31.9503 37.4725L31.9933 19.3364V19.3388ZM28.3149 23.3945C27.1469 24.7082 25.6875 25.3507 23.9081 25.3507C20.2297 25.3507 17.6334 22.5776 17.6334 19.1931C17.6334 15.8085 20.2011 12.744 23.9654 12.744C27.4383 12.744 30.0944 15.8085 30.0944 18.9303C30.0944 20.6238 29.5116 22.1119 28.3149 23.3945Z" fill="white"/>
<path id="Vector_3" d="M21.197 7.94087C22.2879 7.94087 23.1723 7.05649 23.1723 5.96555C23.1723 4.87461 22.2879 3.99023 21.197 3.99023C20.1061 3.99023 19.2217 4.87461 19.2217 5.96555C19.2217 7.05649 20.1061 7.94087 21.197 7.94087Z" fill="#FFBF00"/>
<path id="Vector_4" d="M26.416 7.94087C27.5069 7.94087 28.3913 7.05649 28.3913 5.96555C28.3913 4.87461 27.5069 3.99023 26.416 3.99023C25.3251 3.99023 24.4407 4.87461 24.4407 5.96555C24.4407 7.05649 25.3251 7.94087 26.416 7.94087Z" fill="#FFBF00"/>
</g>
<defs>
<linearGradient id="paint0_linear_286_285" x1="31.1115" y1="46.9085" x2="16.8576" y2="1.06722" gradientUnits="userSpaceOnUse">
<stop stop-color="#00FFE2"/>
<stop offset="1" stop-color="#2871BB"/>
</linearGradient>
</defs>
</svg>
