<svg width="48" height="48" viewBox="0 0 48 48" fill="none" xmlns="http://www.w3.org/2000/svg">
<g id="Group">
<path id="Vector" d="M24 48C37.2548 48 48 37.2548 48 24C48 10.7452 37.2548 0 24 0C10.7452 0 0 10.7452 0 24C0 37.2548 10.7452 48 24 48Z" fill="url(#paint0_linear_286_304)"/>
<path id="Vector_2" d="M29.963 20.8742C32.1577 20.8742 33.9439 19.0879 33.9439 16.8933C33.9439 15.8306 33.5308 14.83 32.7786 14.0778C32.0263 13.3255 31.0257 12.9124 29.963 12.9124C27.7684 12.9124 25.9821 14.6987 25.9821 16.8933C25.9821 17.2396 26.0418 17.5715 26.1254 17.8915L20.7977 21.2539C20.7021 21.1393 20.621 21.0175 20.5159 20.91C19.6251 20.0193 18.4383 19.5273 17.1774 19.5273C14.5744 19.5273 12.4562 21.6455 12.4562 24.2485C12.4562 26.8515 14.5744 28.9673 17.1774 28.9673C18.3451 28.9673 19.3983 28.5255 20.2245 27.8235L23.4914 30.3548C23.3218 30.6366 23.1738 30.9351 23.0783 31.2647C22.455 33.3709 23.6633 35.5894 25.7672 36.2103C26.1421 36.3202 26.5218 36.3751 26.9016 36.3751C27.5559 36.3751 28.2054 36.2103 28.7977 35.8903C29.7314 35.3817 30.412 34.5411 30.7153 33.5214C31.0162 32.5017 30.9039 31.4247 30.3953 30.4909C29.889 29.5572 29.046 28.8766 28.0263 28.5733C26.8729 28.2318 25.6956 28.4539 24.7547 29.0581L21.3469 26.4169C21.6884 25.765 21.901 25.0342 21.901 24.2485C21.901 23.759 21.8054 23.2885 21.6645 22.8348L26.9708 19.4844C27.7016 20.3273 28.7666 20.8742 29.9678 20.8742H29.963ZM17.1774 27.1715C15.5654 27.1715 14.2544 25.8605 14.2544 24.2485C14.2544 22.6366 15.5654 21.3255 17.1774 21.3255C17.9583 21.3255 18.6914 21.6288 19.2454 22.1829C19.7995 22.7369 20.1004 23.47 20.1004 24.2509C20.1004 25.8629 18.7893 27.1739 17.1774 27.1739V27.1715ZM26.8968 30.2067C27.1021 30.2067 27.3099 30.2354 27.5153 30.2975C28.0741 30.4623 28.5374 30.8372 28.8144 31.3506C29.0938 31.8641 29.1559 32.4539 28.9887 33.0127C28.8239 33.5715 28.449 34.0348 27.938 34.3118C27.4245 34.5912 26.8347 34.6533 26.2759 34.4861C25.7171 34.3214 25.2562 33.9464 24.9768 33.4354C24.6974 32.922 24.6353 32.3321 24.8001 31.7733C25.0818 30.8229 25.9535 30.2067 26.8968 30.2067ZM29.963 14.7082C30.5457 14.7082 31.095 14.9351 31.5081 15.3482C31.9213 15.7614 32.1481 16.3082 32.1481 16.8933C32.1481 18.0969 31.169 19.0784 29.963 19.0784C28.7571 19.0784 27.778 18.0993 27.778 16.8933C27.778 15.6873 28.7571 14.7082 29.963 14.7082Z" fill="white"/>
</g>
<defs>
<linearGradient id="paint0_linear_286_304" x1="36.0024" y1="44.7904" x2="11.9976" y2="3.21194" gradientUnits="userSpaceOnUse">
<stop stop-color="#00FFE2"/>
<stop offset="1" stop-color="#2871BB"/>
</linearGradient>
</defs>
</svg>
